<svg width="165" height="165"
  xmlns="http://www.w3.org/2000/svg"
  xmlns:xlink="http://www.w3.org/1999/xlink" xml:space="preserve" overflow="hidden">
  <g transform="translate(-2439 -1424)">
    <path d="M2504.98 1481.15 2504.98 1530.86 2547.85 1506ZM2521.5 1448C2521.5 1448 2573.1 1448 2585.96 1451.46 2593.07 1453.37 2598.65 1458.98 2600.55 1466.11 2603.99 1479.03 2604 1506 2604 1506 2604 1506 2604 1532.97 2600.55 1545.89 2598.65 1553.02 2593.07 1558.63 2585.96 1560.54 2573.1 1564 2521.5 1564 2521.5 1564 2521.5 1564 2469.9 1564 2457.04 1560.54 2449.93 1558.63 2444.35 1553.02 2442.45 1545.89 2439 1532.97 2439 1506 2439 1506 2439 1506 2439 1479.03 2442.45 1466.11 2444.35 1458.98 2449.93 1453.37 2457.04 1451.46 2469.9 1448 2521.5 1448 2521.5 1448Z" fill="#fff" fill-rule="evenodd"/>
  </g>
</svg>