<svg width="3300" height="3301" xmlns="http://www.w3.org/2000/svg" xmlns:xlink="http://www.w3.org/1999/xlink" xml:space="preserve" overflow="hidden"><defs><clipPath id="clip0"><rect x="550" y="-413" width="3300" height="3301"/></clipPath></defs><g clip-path="url(#clip0)" transform="translate(-550 413)"><path d="M928.021 1033.06C933.437 1032.78 938.988 1033.5 944.411 1035.34 1908.2 1360.77 1745.87 1471.71 2200 1932.84 2654.13 1471.71 2491.81 1360.68 3455.59 1035.34 3477.31 1027.99 3501.03 1038.58 3510.05 1059.67 3668.43 1429.98 3630.3 1706.05 3141.03 1840.88 3329.19 1839.56 3526.92 1862.75 3739.49 1884.09 3739.56 1884.1 3739.62 1884.11 3739.69 1884.11 3763.81 1886.66 3781.3 1908.28 3778.75 1932.4 3750.12 2204.61 3460.95 2595.65 2793.71 2382.21 2807.06 2412.34 2814.88 2444.31 2814.88 2478.3 2814.88 2713.96 2361.28 2849.32 2233.38 2882.78 2211.48 2888.41 2188.52 2888.41 2166.62 2882.78 2038.73 2849.32 1585.12 2713.96 1585.12 2478.3 1585.31 2445.11 1592.53 2412.33 1606.29 2382.12 938.965 2595.56 649.795 2204.52 621.247 1932.32 621.24 1932.25 621.233 1932.18 621.226 1932.11 618.79 1907.98 636.378 1886.44 660.512 1884.01 873.085 1862.66 1070.9 1839.56 1258.97 1840.79 769.697 1705.96 731.487 1429.9 889.951 1059.58 896.738 1043.79 911.774 1033.91 928.021 1033.06Z" fill="#F0A9A9" fill-rule="evenodd"/><path d="M2586.06 604.228C2596.56 603.158 2607.43 605.848 2616.52 612.52 2692.18 668.147 2871 839.772 2871 1219.32 2871 1590.69 2677.85 1840 2439.54 1840 2201.49 1840 2247.89 1585.59 2247.89 1214.13 2247.89 982.047 2479.61 705.407 2557.91 618.496 2565.46 610.127 2575.57 605.297 2586.06 604.228ZM1813.94 604.228C1824.43 605.297 1834.54 610.127 1842.09 618.496 1920.39 705.407 2152.11 982.047 2152.11 1214.13 2152.11 1585.59 2198.51 1840 1960.46 1840 1722.15 1840 1529 1590.69 1529 1219.32 1529 839.772 1707.82 668.147 1783.48 612.52 1792.57 605.848 1803.44 603.158 1813.94 604.228Z" fill="#793A80" fill-rule="evenodd"/><path d="M2200.11 694C2207.74 694 2215.36 695.977 2222.2 699.93 2303.78 747.428 2583.22 933.646 2583.22 1256.48 2583.22 1258.5 2582.78 1260.34 2582.78 1262.36L2620.19 1262.45 2906.39 826.885C2909.94 821.501 2914.5 816.865 2919.83 813.242 2942.3 797.979 2972.89 803.812 2988.15 826.27 3112.59 1009.42 3202.25 1236.55 3151.58 1482.38 3055.16 1949.81 2636.44 2179.84 2200.15 2076.68 1763.6 2179.84 1344.88 1949.72 1248.46 1482.38 1197.7 1236.63 1287.36 1009.5 1411.8 826.358 1415.42 821.024 1420.05 816.454 1425.43 812.906 1448.11 797.957 1478.61 804.216 1493.56 826.885L1779.85 1262.45 1817.26 1262.36C1817.26 1260.34 1816.82 1258.5 1816.82 1256.48 1816.82 933.646 2096.44 747.428 2178.02 699.93 2184.85 695.977 2192.48 694 2200.11 694Z" fill="#66A898" fill-rule="evenodd"/><path d="M1721 1310 2679 1310 2450.96 1981 1949.04 1981Z" fill="#F4900C" fill-rule="evenodd"/><path d="M2200 1167C2464.54 1167 2679 1231.25 2679 1310.5 2679 1389.75 2464.54 1454 2200 1454 1935.46 1454 1721 1389.75 1721 1310.5 1721 1231.25 1935.46 1167 2200 1167Z" fill="#FFDC5D" fill-rule="evenodd"/><path d="M2200.09 1269C2207.96 1269 2215.83 1271.11 2222.82 1275.32 2305.14 1325.11 2583 1517.78 2583 1851.31 2583 2153.23 2411.51 2356 2200.09 2356 1988.49 2356 1817 2153.23 1817 1851.23 1817 1517.78 2094.95 1325.03 2177.36 1275.32 2184.35 1271.11 2192.22 1269 2200.09 1269Z" fill="#66A898" fill-rule="evenodd"/><path d="M3385.9 1321.13C3410.31 1321.18 3430.05 1340.99 3430 1365.38 3428.15 1580.55 3342.23 2355.82 2200.18 2356L2199.83 2356C1057.77 2355.82 971.849 1580.55 970.004 1365.38 969.956 1361.67 970.381 1357.97 971.267 1354.37 977.042 1330.87 1000.79 1316.5 1024.3 1322.28 1258.88 1378.81 2197.01 1648.85 2200.09 2352.66 2203.08 1648.85 3141.21 1378.81 3375.79 1322.28 3379.11 1321.5 3382.5 1321.12 3385.9 1321.13Z" fill="#793A80" fill-rule="evenodd"/><path d="M1557.14 777.872C1550.37 767.508 1536.57 752.61 1525.83 744.077 1512.52 733.492 1472.39 643.682 1455.38 586.385 1340.34 198.872 1540.24-207.203 1921.08-359.646 2101.78-431.975 2317.16-429.212 2495.3-352.278 2848.87-199.585 3039.62 169.84 2955.12 538.226 2937.28 615.993 2889.81 731.762 2869.37 747.347 2860.55 754.068 2850.15 765.67 2842.11 777.752 2833.54 790.624 2835.09 791.148 2825.66 772.205 2804.58 729.893 2776.87 686.723 2746.97 649.604L2737.78 638.199 2744.05 624.817C2889.05 315.144 2753.37-55.8287 2444.27-194.808L2426.38-202.851 2425.62-176.86C2423.3-97.3589 2379.12-39.0307 2307.98-21.5314 2300.98-19.8073 2287.25-19.4514 2211.86-19.0417L2123.91-18.5634 2123.45 64.3787C2123 146.035 2122.95 147.45 2120.22 155.653 2113.22 176.661 2095.41 193.1 2070.48 201.55L2060.45 204.948 1978.68 205.316 1896.91 205.684 1896.91 283.312 1896.91 360.941 2129.69 360.958C2332.88 360.975 2363.49 361.217 2370.5 362.869 2390.31 367.538 2407.14 382.23 2418.19 404.514 2425.75 419.745 2425.75 419.732 2425.75 545.621L2425.75 660.246 2412.77 677.1C2402.93 689.868 2385.61 713.285 2379.87 721.579 2379.7 721.815 2372.34 716.136 2363.5 708.958 2318.44 672.364 2257.5 631.33 2236.65 623.54 2212.34 614.457 2188.41 614.237 2164.68 622.877 2140.4 631.72 2073.29 677.251 2025.57 717.264 2020.05 721.888 2019.4 722.141 2018.25 720.091 2017.56 718.853 2007.74 705.516 1996.43 690.453L1975.86 663.067 1975.86 623.823 1975.86 584.579 1794.75 403.537C1660.36 269.203 1613.36 222.941 1612.55 224.226 1611.95 225.179 1610.24 231.662 1608.75 238.634 1581.92 364.17 1598.55 508.366 1653.16 623.72L1660.42 639.054 1655.15 645.647C1622.28 686.802 1594.76 729.422 1573.45 772.204 1564.02 791.137 1565.48 790.628 1557.14 777.871Z" fill="#FFFFFF" fill-rule="evenodd"/></g></svg>