<svg width="330" height="330"
  xmlns="http://www.w3.org/2000/svg"
  xmlns:xlink="http://www.w3.org/1999/xlink" xml:space="preserve" overflow="hidden">
  <defs>
    <clipPath id="clip0">
      <rect x="997" y="313" width="330" height="330"/>
    </clipPath>
  </defs>
  <g clip-path="url(#clip0)" transform="translate(-997 -313)">
    <path d="M1029.08 403.006C1029.65 402.977 1030.23 403.052 1030.8 403.245 1131.51 437.297 1114.54 448.905 1162 497.158 1209.46 448.905 1192.49 437.288 1293.2 403.245 1295.47 402.475 1297.95 403.584 1298.9 405.79 1315.45 444.54 1311.46 473.427 1260.33 487.535 1280 487.397 1300.66 489.824 1322.87 492.057 1322.88 492.058 1322.89 492.059 1322.89 492.059 1325.41 492.326 1327.24 494.588 1326.97 497.112 1323.98 525.595 1293.76 566.514 1224.04 544.179 1225.44 547.332 1226.25 550.677 1226.25 554.234 1226.25 578.894 1178.85 593.057 1165.49 596.559 1163.2 597.147 1160.8 597.147 1158.51 596.559 1145.15 593.057 1097.75 578.894 1097.75 554.234 1097.77 550.761 1098.52 547.331 1099.96 544.17 1030.23 566.504 1000.01 525.586 997.026 497.103 997.025 497.096 997.024 497.089 997.023 497.082 996.769 494.557 998.607 492.303 1001.13 492.048 1023.34 489.815 1044.01 487.397 1063.67 487.526 1012.54 473.418 1008.55 444.531 1025.1 405.781 1025.81 404.129 1027.38 403.095 1029.08 403.006Z" fill="#B770BE" fill-rule="evenodd"/>
    <path d="M1202.27 359.024C1203.37 358.912 1204.5 359.193 1205.45 359.889 1213.34 365.695 1232 383.607 1232 423.22 1232 461.98 1211.85 488 1186.99 488 1162.16 488 1167 461.448 1167 422.679 1167 398.456 1191.17 369.584 1199.34 360.513 1200.13 359.639 1201.18 359.135 1202.27 359.024ZM1121.73 359.024C1122.82 359.135 1123.87 359.639 1124.66 360.513 1132.83 369.584 1157 398.456 1157 422.679 1157 461.448 1161.84 488 1137.01 488 1112.15 488 1092 461.98 1092 423.22 1092 383.607 1110.66 365.695 1118.55 359.889 1119.5 359.193 1120.63 358.912 1121.73 359.024Z" fill="#9B4AA4" fill-rule="evenodd"/>
    <path d="M1162.01 368C1162.81 368 1163.61 368.207 1164.32 368.62 1172.85 373.582 1202.07 393.038 1202.07 426.766 1202.07 426.977 1202.02 427.17 1202.02 427.381L1205.93 427.39 1235.86 381.884C1236.23 381.321 1236.7 380.837 1237.26 380.458 1239.61 378.864 1242.81 379.473 1244.41 381.819 1257.42 400.954 1266.79 424.684 1261.49 450.368 1251.41 499.204 1207.63 523.237 1162.02 512.459 1116.37 523.237 1072.59 499.195 1062.51 450.368 1057.2 424.693 1066.58 400.963 1079.59 381.829 1079.97 381.271 1080.45 380.794 1081.02 380.423 1083.39 378.861 1086.58 379.515 1088.14 381.884L1118.07 427.39 1121.98 427.381C1121.98 427.17 1121.94 426.977 1121.94 426.766 1121.94 393.038 1151.17 373.582 1159.7 368.62 1160.42 368.207 1161.21 368 1162.01 368Z" fill="#793A80" fill-rule="evenodd"/>
    <path d="M1112 432 1212 432 1188.2 502 1135.8 502Z" fill="#F4900C" fill-rule="evenodd"/>
    <path d="M1162 417C1189.61 417 1212 423.716 1212 432 1212 440.284 1189.61 447 1162 447 1134.39 447 1112 440.284 1112 432 1112 423.716 1134.39 417 1162 417Z" fill="#FFDC5D" fill-rule="evenodd"/>
    <path d="M1162.01 428C1162.83 428 1163.65 428.221 1164.38 428.663 1172.98 433.885 1202 454.091 1202 489.071 1202 520.734 1184.09 542 1162.01 542 1139.91 542 1122 520.734 1122 489.061 1122 454.091 1151.03 433.876 1159.64 428.663 1160.37 428.221 1161.19 428 1162.01 428Z" fill="#793A80" fill-rule="evenodd"/>
    <path d="M1285.39 433.013C1287.94 433.019 1290.01 435.106 1290 437.674 1289.81 460.335 1280.83 541.982 1161.52 542L1161.48 542C1042.17 541.982 1033.19 460.335 1033 437.674 1033 437.283 1033.04 436.894 1033.13 436.514 1033.74 434.04 1036.22 432.527 1038.67 433.134 1063.18 439.089 1161.19 467.528 1161.51 541.649 1161.82 467.528 1259.83 439.089 1284.34 433.134 1284.68 433.053 1285.04 433.013 1285.39 433.013Z" fill="#9B4AA4" fill-rule="evenodd"/>
  </g>
</svg>