<svg width="171" height="165"
  xmlns="http://www.w3.org/2000/svg"
  xmlns:xlink="http://www.w3.org/1999/xlink" xml:space="preserve" overflow="hidden">
  <defs>
    <clipPath id="clip0">
      <rect x="2238" y="1428" width="171" height="165"/>
    </clipPath>
  </defs>
  <g clip-path="url(#clip0)" transform="translate(-2238 -1428)">
    <path d="M2341.58 1428 2345.22 1433.62C2347.22 1436.71 2352.93 1443.34 2357.9 1448.37 2371.45 1462.06 2376 1469.2 2376 1476.78 2376 1480.6 2375.76 1481.06 2373.8 1481 2372.59 1480.96 2370.85 1480.63 2369.93 1480.27 2369.02 1479.91 2366.84 1477.5 2365.1 1474.91 2362.05 1470.39 2346.7 1458.13 2339.51 1454.48 2335.68 1452.53 2330.92 1453.16 2319.92 1457.07 2312.05 1459.86 2309.4 1461.59 2306.27 1465.95 2305.1 1467.57 2304.6 1467.49 2297.22 1464.54 2292.92 1462.82 2289.25 1461.32 2289.06 1461.21 2288.28 1460.74 2294.91 1452.35 2298.97 1448.67 2304.67 1443.5 2307.92 1441.91 2318.69 1439.03 2328.24 1436.48 2336.08 1433.05 2339.46 1429.94L2341.58 1428Z" fill="#fff" fill-rule="evenodd"/>
    <path d="M2334.03 1459.05C2336.98 1458.8 2338.77 1459.51 2343.64 1462.87 2353 1469.35 2361.36 1477.21 2361.89 1480.04 2362.82 1485.02 2357.8 1490.08 2344.81 1497.23 2337.94 1501.02 2331.7 1505.32 2329.96 1507.47 2328.54 1509.22 2327 1509.53 2327 1508.07 2327 1505.81 2332.05 1493.7 2336.56 1485.15 2339.8 1479 2341.44 1474.73 2341.44 1472.41 2341.44 1468.98 2340.17 1467.42 2331.83 1460.53 2330.64 1459.56 2331.03 1459.3 2334.03 1459.05Z" fill="#fff" fill-rule="evenodd"/>
    <path d="M2324.39 1462.18C2324.95 1462.44 2325.63 1462.98 2326.42 1463.79 2328.62 1466.04 2328.54 1467.92 2326.05 1472.44 2323.74 1476.61 2323.49 1476.78 2322.62 1474.68 2322.28 1473.86 2322 1470.69 2322 1467.63 2322 1463.14 2322.7 1461.4 2324.39 1462.18Z" fill="#fff" fill-rule="evenodd"/>
    <path d="M2315.89 1463C2316.7 1462.96 2316.75 1464.36 2316.75 1469.38 2316.75 1477.54 2318.85 1482.64 2323.81 1486.56L2327 1489.07 2324.27 1497.54C2322.77 1502.19 2321.43 1506 2321.3 1506 2321.18 1506 2318.83 1504.42 2316.1 1502.49 2313.36 1500.55 2310.3 1497.43 2309.3 1495.56 2307.5 1492.19 2307.51 1492.01 2309.72 1483.46 2311.52 1476.5 2311.75 1474.21 2310.9 1471.94 2309.7 1468.75 2311.25 1465.35 2314.79 1463.44 2315.26 1463.19 2315.61 1463.01 2315.89 1463Z" fill="#fff" fill-rule="evenodd"/>
    <path d="M2284.43 1464.07C2285.2 1464.21 2286.01 1464.57 2287.05 1465.07 2291.46 1467.18 2291.98 1468.61 2289.59 1472.03 2286.54 1476.38 2281.05 1488.07 2279.69 1493.09 2278.98 1495.75 2278.73 1499.27 2279.11 1501.42 2280.78 1510.92 2280.79 1515.22 2279.14 1518.52 2276.8 1523.18 2273.85 1526.18 2270.05 1527.79 2266.15 1529.43 2265.51 1529.42 2261.47 1527.64 2252.77 1523.8 2240.86 1504.37 2238.28 1489.81 2237.68 1486.42 2237.81 1486.19 2240.9 1485.21 2242.69 1484.64 2246.64 1483.73 2249.68 1483.19 2256.98 1481.89 2265 1477.7 2273.2 1470.92 2280.13 1465.18 2282.12 1463.64 2284.43 1464.07Z" fill="#fff" fill-rule="evenodd"/>
    <path d="M2332.8 1467C2334.52 1467 2336 1469.54 2336 1472.51 2336 1475.57 2331.28 1485 2329.74 1485 2329.35 1485 2328.2 1484.17 2327.2 1483.16 2325.45 1481.4 2325.49 1481.19 2328.18 1477.99 2329.72 1476.15 2331.23 1472.93 2331.54 1470.83 2331.85 1468.72 2332.42 1467 2332.8 1467Z" fill="#fff" fill-rule="evenodd"/>
    <path d="M2298.54 1471C2299.62 1471 2301.79 1471.67 2303.37 1472.48 2306.89 1474.29 2307.04 1476.49 2304.18 1484.69 2302.41 1489.79 2302.28 1491.17 2303.25 1494.41 2304.76 1499.43 2309.11 1504.17 2316.13 1508.48 2323.74 1513.15 2324.54 1515.74 2320.91 1523.84 2319.95 1525.97 2318.86 1528.7 2318.49 1529.91 2318.12 1531.11 2316.55 1532.75 2315.01 1533.54 2309.63 1536.31 2307.6 1535.53 2300.02 1527.8 2294.75 1522.42 2292.1 1520.44 2289.51 1519.96L2286.06 1519.31 2285.99 1512.85C2285.95 1509.3 2285.62 1503.62 2285.26 1500.24 2284.67 1494.66 2284.91 1493.39 2287.81 1486.66 2292.04 1476.88 2296.06 1471 2298.54 1471Z" fill="#fff" fill-rule="evenodd"/>
    <path d="M2372.45 1485.05C2373.09 1484.9 2374.51 1485.1 2377.26 1485.53 2384.56 1486.67 2392.16 1489.09 2395.38 1491.31 2396.78 1492.27 2399.38 1495.82 2401.16 1499.2 2402.94 1502.57 2405.45 1506.73 2406.72 1508.44 2408 1510.15 2409.02 1511.9 2409 1512.34 2408.98 1512.78 2406.8 1514.18 2404.15 1515.46 2400.42 1517.26 2398.55 1519.06 2395.81 1523.46 2389.56 1533.52 2384.12 1535.52 2378.12 1529.95 2375.01 1527.06 2374.58 1525.98 2373.23 1517.52 2372.07 1510.22 2371.98 1507.1 2372.84 1502.76 2373.9 1497.4 2373.67 1490.86 2372.28 1486.71 2371.94 1485.71 2371.81 1485.2 2372.45 1485.05Z" fill="#fff" fill-rule="evenodd"/>
    <path d="M2366.53 1486.1C2368.26 1487.13 2368.57 1496.54 2366.89 1509.57 2364.85 1525.47 2362.55 1528.39 2344.81 1537.75 2337.08 1541.84 2333.34 1542.75 2329.78 1541.45 2326.99 1540.42 2323 1535.88 2323 1533.73 2323 1532.54 2324.31 1528.77 2325.91 1525.36 2327.5 1521.96 2328.81 1517.98 2328.81 1516.53 2328.81 1512.92 2334.94 1507.9 2347.73 1501.03 2358.54 1495.23 2362.05 1492.47 2364.35 1488.03 2365.22 1486.33 2365.95 1485.75 2366.53 1486.1Z" fill="#fff" fill-rule="evenodd"/>
    <path d="M2369.72 1523 2370.35 1526.88C2371.03 1531.15 2372.34 1532.58 2378.72 1536.06L2383 1538.4 2382.48 1543.36C2381.74 1550.54 2379.75 1556.41 2377.71 1557.5 2376.73 1558.02 2374.34 1558.51 2372.39 1558.58 2370.14 1558.67 2368.66 1559.27 2368.31 1560.26 2366.32 1565.89 2362.63 1566.4 2353.12 1562.36L2346.52 1559.57 2340.85 1561.88C2334.39 1564.52 2332.84 1564.69 2329.35 1563.11 2326.41 1561.78 2326.4 1561.66 2328.37 1556.96 2329.39 1554.55 2329.68 1551.99 2329.27 1549.24L2328.65 1545.13 2334.86 1545.5C2340.56 1545.85 2341.75 1545.55 2349.01 1541.92 2358.1 1537.38 2365.37 1531.44 2367.95 1526.44L2369.72 1523Z" fill="#fff" fill-rule="evenodd"/>
    <path d="M2286.71 1524.22C2288.77 1524.86 2291.31 1526.9 2294.59 1530.42 2303.29 1539.75 2308.59 1541.89 2314.9 1538.6 2318.2 1536.89 2319.75 1537.63 2321.92 1541.98 2325.98 1550.09 2324.08 1557.87 2316.3 1565.03 2309.59 1571.2 2303.76 1573 2290.54 1573L2280.42 1573 2279.8 1568.31C2278.88 1561.33 2274.65 1553.73 2269.59 1549.95 2264.03 1545.8 2263 1543.2 2264.83 1537.97 2266.12 1534.26 2266.6 1533.87 2271.04 1532.86 2276.87 1531.53 2279.27 1530.08 2281.69 1526.42 2283.07 1524.34 2284.65 1523.58 2286.71 1524.22Z" fill="#fff" fill-rule="evenodd"/>
    <path d="M2267.36 1556.24C2270.77 1556.97 2273 1559.4 2273 1563.29 2273 1566.1 2269.65 1570.09 2265.37 1572.37 2262.59 1573.85 2250.04 1574.52 2243.75 1573.53 2239.51 1572.86 2237.26 1571.85 2238.22 1571.05 2241.74 1568.07 2250.46 1561.84 2254.59 1559.34 2259.34 1556.46 2263.94 1555.5 2267.36 1556.24Z" fill="#fff" fill-rule="evenodd"/>
    <path d="M2323.89 1565 2325.45 1567.26C2326.3 1568.5 2327 1571.43 2327 1573.78 2327 1577.46 2326.48 1578.53 2323.17 1581.63 2321.06 1583.6 2317.48 1586.97 2315.21 1589.11 2312.94 1591.25 2310.98 1593 2310.87 1593 2310.76 1593 2310.85 1591.72 2311.08 1590.17 2311.3 1588.61 2311.1 1585.8 2310.64 1583.93 2309.24 1578.32 2310.11 1575.07 2313.5 1573.22 2315.17 1572.31 2318.19 1570.09 2320.21 1568.28L2323.89 1565Z" fill="#fff" fill-rule="evenodd"/>
    <path d="M2347.27 1566.06C2348.57 1566.23 2350.01 1566.84 2352.49 1568 2355.46 1569.39 2358.94 1570.52 2360.22 1570.52 2363.54 1570.52 2381.3 1583.33 2379.92 1584.73 2379.64 1585.03 2376.42 1585.91 2372.78 1586.7 2365.67 1588.24 2359.39 1588.41 2354.43 1587.21 2348.12 1585.68 2340.54 1577.55 2339.24 1570.91 2338.67 1568.02 2338.83 1567.84 2342.87 1566.68 2344.81 1566.13 2345.97 1565.88 2347.27 1566.06Z" fill="#fff" fill-rule="evenodd"/>
  </g>
</svg>