<svg width="132" height="132" xmlns="http://www.w3.org/2000/svg" xmlns:xlink="http://www.w3.org/1999/xlink" xml:space="preserve" overflow="hidden"><g transform="translate(-1309 -1711)"><path d="M1361.79 1757.58 1361.79 1797.43 1396.08 1777.5ZM1375 1731C1375 1731 1416.28 1731 1426.57 1733.78 1432.25 1735.31 1436.72 1739.8 1438.24 1745.52 1440.99 1755.88 1441 1777.5 1441 1777.5 1441 1777.5 1441 1799.12 1438.24 1809.48 1436.72 1815.2 1432.25 1819.69 1426.57 1821.22 1416.28 1824 1375 1824 1375 1824 1375 1824 1333.72 1824 1323.43 1821.22 1317.75 1819.69 1313.28 1815.2 1311.76 1809.48 1309 1799.12 1309 1777.5 1309 1777.5 1309 1777.5 1309 1755.88 1311.76 1745.52 1313.28 1739.8 1317.75 1735.31 1323.43 1733.78 1333.72 1731 1375 1731 1375 1731Z" fill="#FFFFFF" fill-rule="evenodd"/></g></svg>